<svg xmlns="http://www.w3.org/2000/svg" width="44.709" height="42.498" viewBox="0 0 44.709 42.498">
  <g id="algorithm" transform="translate(-1.998 -3.73)">
    <path id="Trazado_2" data-name="Trazado 2" d="M39.006,22.673H24.284a2.117,2.117,0,0,1-2.114-2.114V5.838A2.113,2.113,0,0,1,24.284,3.73H39.006a2.108,2.108,0,0,1,2.108,2.108V7.792a.639.639,0,1,1-1.277,0V5.838a.83.83,0,0,0-.83-.83H24.284a.835.835,0,0,0-.837.83V20.559a.838.838,0,0,0,.837.837H39.006a.835.835,0,0,0,.83-.837V18.611a.639.639,0,1,1,1.277,0v1.948A2.113,2.113,0,0,1,39.006,22.673Z" transform="translate(-7.289 0)" fill="#007aea"/>
    <path id="Trazado_3" data-name="Trazado 3" d="M50.469,19.245a.639.639,0,0,1-.639-.639V16.729a.639.639,0,1,1,1.277,0v1.878A.639.639,0,0,1,50.469,19.245Z" transform="translate(-17.283 -4.466)" fill="#007aea"/>
    <path id="Trazado_4" data-name="Trazado 4" d="M36.639,46.653A.639.639,0,0,1,36,46.014V32.029a.639.639,0,0,1,1.277,0V46.016a.639.639,0,0,1-.639.637Z" transform="translate(-12.286 -9.994)" fill="#007aea"/>
    <path id="Trazado_5" data-name="Trazado 5" d="M43.992,50.4a.639.639,0,0,1-.639-.639V43.876a.835.835,0,0,0-.834-.83H11.605a.835.835,0,0,0-.834.83v5.889a.639.639,0,1,1-1.277,0V43.876a2.114,2.114,0,0,1,2.111-2.108H42.518a2.114,2.114,0,0,1,2.111,2.111v5.889A.639.639,0,0,1,43.992,50.4Z" transform="translate(-2.708 -13.744)" fill="#007aea"/>
    <path id="Trazado_6" data-name="Trazado 6" d="M60.44,64.134a5.424,5.424,0,1,1,5.423-5.423,5.424,5.424,0,0,1-5.423,5.423Zm0-9.569a4.146,4.146,0,1,0,4.146,4.146A4.146,4.146,0,0,0,60.44,54.565Z" transform="translate(-19.156 -17.906)" fill="#007aea"/>
    <path id="Trazado_7" data-name="Trazado 7" d="M33.932,64.134a5.424,5.424,0,1,1,5.424-5.424,5.424,5.424,0,0,1-5.424,5.424Zm0-9.569a4.146,4.146,0,1,0,4.146,4.146A4.146,4.146,0,0,0,33.932,54.565Z" transform="translate(-9.579 -17.906)" fill="#007aea"/>
    <path id="Trazado_8" data-name="Trazado 8" d="M7.422,64.134a5.424,5.424,0,1,1,5.423-5.423,5.424,5.424,0,0,1-5.423,5.423Zm0-9.569a4.146,4.146,0,1,0,4.146,4.146A4.146,4.146,0,0,0,7.422,54.565Z" transform="translate(0 -17.906)" fill="#007aea"/>
  </g>
</svg>
