<svg xmlns="http://www.w3.org/2000/svg" width="54.76" height="38.391" viewBox="0 0 54.76 38.391">
  <g id="mortarboard" transform="translate(0 -76.517)">
    <path id="Trazado_1" data-name="Trazado 1" d="M53.7,85.137,42.144,81.23a.8.8,0,0,0-.514,1.52L53.079,86.62,47.69,89.247a2.435,2.435,0,0,0-.747-.338L30.777,84.684a3.459,3.459,0,0,0-6.857.648v.018a2.056,2.056,0,0,0,2.064,2.028h2.791a2.043,2.043,0,0,0,1.815-1.084l15.075,3.94-16.82,8.2a3.33,3.33,0,0,1-2.933,0L1.681,86.62,26.309,78.3a3.364,3.364,0,0,1,2.143,0l9.615,3.25a.8.8,0,0,0,.514-1.52l-9.615-3.25a4.98,4.98,0,0,0-3.17,0L1.057,85.137a1.558,1.558,0,0,0-.184,2.874l12.7,6.19a75.885,75.885,0,0,1-2.924,10.068,3.172,3.172,0,0,0,1.017,3.592,40.317,40.317,0,0,0,12.43,6.534,10.781,10.781,0,0,0,6.576,0,40.325,40.325,0,0,0,12.43-6.534,3.171,3.171,0,0,0,1.017-3.592A75.922,75.922,0,0,1,41.191,94.2l5.972-2.912v12.074a1.981,1.981,0,0,0-1.828,1.972v2.338a1.183,1.183,0,0,0,.389.877l-.3,4.505a1.529,1.529,0,0,0,1.524,1.628H48.98a1.529,1.529,0,0,0,1.524-1.628l-.3-4.505a1.183,1.183,0,0,0,.389-.877v-2.338a1.981,1.981,0,0,0-1.828-1.972V91.272a2.432,2.432,0,0,0-.108-.712l5.228-2.549a1.558,1.558,0,0,0-.184-2.874Zm-24.928.637H25.985a.453.453,0,0,1-.459-.428v-.013a1.837,1.837,0,0,1,.584-1.351,1.857,1.857,0,0,1,3.123,1.259A.456.456,0,0,1,28.776,85.774ZM41.7,102.207a37.9,37.9,0,0,1-12.6,6.223.8.8,0,1,0,.3,1.576,39.511,39.511,0,0,0,12.846-6.193c.112.32.242.684.36,1.008a1.571,1.571,0,0,1-.5,1.78,38.844,38.844,0,0,1-11.931,6.268,9.179,9.179,0,0,1-5.592,0A38.846,38.846,0,0,1,12.653,106.6a1.571,1.571,0,0,1-.5-1.78l.014-.039c.117-.319.246-.682.346-.969a39.568,39.568,0,0,0,12.845,6.194.8.8,0,1,0,.3-1.576,37.912,37.912,0,0,1-12.6-6.223,75.388,75.388,0,0,0,2-7.282L25.21,99.876a4.921,4.921,0,0,0,4.339,0L39.7,94.925A75.359,75.359,0,0,0,41.7,102.207Zm5.328,10.872.279-4.218h1.307l.279,4.218Zm1.958-7.744v1.921H46.939v-1.921a.381.381,0,0,1,.376-.376h1.3A.381.381,0,0,1,48.991,105.335Z" fill="#007aea"/>
  </g>
</svg>
