<svg xmlns="http://www.w3.org/2000/svg" width="800" height="709.02" viewBox="0 0 800 709.02">
  <g id="clean" transform="translate(0.189 -29.029)">
    <path id="Trazado_255" data-name="Trazado 255" d="M28.785,29.031H558.966a11.714,11.714,0,1,1,0,23.429H28.785a5.361,5.361,0,0,0-5.354,5.356v57.5H776.276v-57.5a5.361,5.361,0,0,0-5.356-5.356H691.707a11.714,11.714,0,1,1,0-23.429H770.92A28.818,28.818,0,0,1,799.7,57.814V709.266a28.816,28.816,0,0,1-28.785,28.783H28.783A28.816,28.816,0,0,1,0,709.266v-72.95a11.714,11.714,0,0,1,23.429,0v72.95a5.361,5.361,0,0,0,5.354,5.354H770.92a5.361,5.361,0,0,0,5.356-5.354V138.738H23.43V512.945a11.714,11.714,0,1,1-23.429,0V57.814A28.815,28.815,0,0,1,28.785,29.031Z" transform="translate(0.106 0)" fill="#007aea"/>
    <path id="Trazado_256" data-name="Trazado 256" d="M463.681,300.408c.011-.011.019-.022.03-.033l59.834-59.833a56.888,56.888,0,0,0-80.453-80.451L334.454,268.73a88.115,88.115,0,0,0-76.4,31.174c-4.44,5.323-6.819,8.431-12.762,16.032a11.714,11.714,0,1,0,18.3,14.631c.125-.166,8.072-10.4,12.455-15.652a64.042,64.042,0,0,1,46.836-23.134,66.112,66.112,0,0,1,49.6,19.244l.128.128a66.093,66.093,0,0,1,19.246,49.6,64.039,64.039,0,0,1-23.136,46.837c-4.017,3.355-8.4,6.838-13.027,10.354a141.942,141.942,0,0,0-55.146,97.579c-1.412,5.4-3.923,6.957-9.447,5.931a224.733,224.733,0,0,1-50.256-24.173l44.952-44.952a11.715,11.715,0,0,0-16.567-16.567l-47.373,47.373A183.31,183.31,0,0,1,200.5,461.781l47.373-47.373a11.715,11.715,0,0,0-16.567-16.567l-44.952,44.952a224.75,224.75,0,0,1-24.171-50.255c-1.026-5.528.53-8.035,5.93-9.448a139.808,139.808,0,0,0,56.187-18.5,11.714,11.714,0,1,0-11.825-20.225,116.548,116.548,0,0,1-46.83,15.431,30.55,30.55,0,0,0-25.625,40.345C164.33,471.033,212.6,519.305,283.5,543.615a30.551,30.551,0,0,0,40.343-25.625A118.42,118.42,0,0,1,369.869,436.6c4.909-3.73,9.571-7.438,13.861-11.018a88.117,88.117,0,0,0,31.176-76.4l48.743-48.743C463.659,300.427,463.671,300.419,463.681,300.408Zm-4.023-123.749a33.459,33.459,0,0,1,47.318,47.317L455.4,275.555l-47.317-47.317Zm-70.48,117.927-.128-.128a89.344,89.344,0,0,0-28.2-18.989l30.662-30.663,47.317,47.317-30.663,30.663A89.365,89.365,0,0,0,389.178,294.586Z" transform="translate(77.846 64.301)" fill="#007aea"/>
    <path id="Trazado_257" data-name="Trazado 257" d="M153.931,241.5l12.844,7.024,7.022,12.842A19.945,19.945,0,0,0,191.3,271.75h0a19.951,19.951,0,0,0,17.509-10.381l7.024-12.844,12.844-7.024a19.958,19.958,0,0,0,0-35.02l-12.844-7.024-7.024-12.844a19.957,19.957,0,0,0-35.018,0l-7.024,12.844-12.844,7.024a19.958,19.958,0,0,0,0,35.02Zm24.981-21.978a19.935,19.935,0,0,0,7.928-7.931l4.466-8.166,4.465,8.166a19.92,19.92,0,0,0,7.933,7.933l8.167,4.467-8.167,4.466a19.924,19.924,0,0,0-7.933,7.933l-4.465,8.166-4.466-8.166a19.933,19.933,0,0,0-7.933-7.933l-8.167-4.467Z" transform="translate(80.771 82.718)" fill="#007aea"/>
    <path id="Trazado_258" data-name="Trazado 258" d="M345.956,340.155l12.842,7.022,7.025,12.844a19.958,19.958,0,0,0,35.02,0l7.024-12.842,12.842-7.024a19.958,19.958,0,0,0,0-35.02l-12.844-7.025-7.022-12.842a19.958,19.958,0,0,0-35.02,0L358.8,298.112l-12.844,7.024a19.958,19.958,0,0,0,0,35.02Zm24.977-21.976a19.918,19.918,0,0,0,7.933-7.933l4.465-8.167,4.466,8.167a19.913,19.913,0,0,0,7.934,7.933l8.166,4.466-8.166,4.465a19.928,19.928,0,0,0-7.934,7.935l-4.466,8.165-4.465-8.165a19.918,19.918,0,0,0-7.933-7.935l-8.167-4.465Z" transform="translate(188.673 138.153)" fill="#007aea"/>
    <path id="Trazado_259" data-name="Trazado 259" d="M200.407,392.9l-12.844-7.024-7.024-12.844a19.958,19.958,0,0,0-35.02,0L138.5,385.871,125.652,392.9a19.957,19.957,0,0,0,0,35.018l12.844,7.023,7.024,12.844a19.958,19.958,0,0,0,35.02,0l7.024-12.844,12.844-7.023a19.957,19.957,0,0,0,0-35.018Zm-24.977,21.976A19.924,19.924,0,0,0,167.5,422.8l-4.467,8.167-4.467-8.17a19.937,19.937,0,0,0-7.931-7.928l-8.166-4.465,8.166-4.466a19.916,19.916,0,0,0,7.933-7.933l4.467-8.167L167.493,398a19.906,19.906,0,0,0,7.938,7.942l8.166,4.466Z" transform="translate(64.88 187.467)" fill="#007aea"/>
    <path id="Trazado_260" data-name="Trazado 260" d="M85.828,68.364A11.713,11.713,0,0,0,97.542,80.079h18.152a11.714,11.714,0,1,0,0-23.429H97.542A11.714,11.714,0,0,0,85.828,68.364Z" transform="translate(518.473 -27.621)" fill="#007aea"/>
    <circle id="Elipse_20" data-name="Elipse 20" cx="18.808" cy="18.808" r="18.808" transform="translate(59.939 64.187)" fill="#007aea"/>
    <path id="Trazado_261" data-name="Trazado 261" d="M0,11.714A11.713,11.713,0,0,0,11.714,23.429H29.867A11.714,11.714,0,0,0,29.867,0H11.714A11.714,11.714,0,0,0,0,11.714Z" transform="translate(23.24 554.13) rotate(90)" fill="#007aea"/>
  </g>
</svg>
