<svg id="optimization" xmlns="http://www.w3.org/2000/svg" width="800" height="800" viewBox="0 0 800 800">
  <g id="Grupo_27" data-name="Grupo 27" transform="translate(0)">
    <g id="Grupo_26" data-name="Grupo 26">
      <path id="Trazado_229" data-name="Trazado 229" d="M291.481,493.872,290.43,494a12.632,12.632,0,0,0,1.552,25.167,12.946,12.946,0,0,0,1.583-.1l1.16-.149a12.629,12.629,0,1,0-3.243-25.05Z" transform="translate(157.142 277.742)" fill="#007aea"/>
      <path id="Trazado_230" data-name="Trazado 230" d="M404.848,774.706c-.052,0-.106,0-.158,0q-2.344.028-4.691.028c-206.631,0-374.737-168.1-374.737-374.736S193.369,25.262,400,25.262,774.737,193.369,774.737,400a371.224,371.224,0,0,1-37.17,162.922,12.631,12.631,0,1,0,22.744,11A400.087,400.087,0,0,0,400,0,400,400,0,0,0,117.158,682.841,397.372,397.372,0,0,0,400,800q2.5,0,5-.03a12.632,12.632,0,0,0-.152-25.264Z" transform="translate(0)" fill="#007aea"/>
      <path id="Trazado_231" data-name="Trazado 231" d="M647.747,411.116H627.233a12.633,12.633,0,0,0-12.411,10.278,242.185,242.185,0,0,1-9.2,34.409,12.632,12.632,0,1,0,23.859,8.306,267.3,267.3,0,0,0,8-27.731h10.264a60.631,60.631,0,1,0,0-121.263H637.491a265.325,265.325,0,0,0-33.8-81.566l7.264-7.262A60.633,60.633,0,0,0,525.21,140.54l-7.263,7.264a265.284,265.284,0,0,0-81.566-33.8V103.747a60.631,60.631,0,1,0-121.263,0v10.258a265.308,265.308,0,0,0-81.565,33.8l-7.264-7.264a60.632,60.632,0,0,0-85.745,85.747l7.263,7.264a265.312,265.312,0,0,0-33.8,81.566H103.747a60.631,60.631,0,1,0,0,121.262h10.258a265.312,265.312,0,0,0,33.8,81.566l-7.263,7.262a60.632,60.632,0,0,0,85.745,85.748l7.264-7.264a265.286,265.286,0,0,0,81.566,33.8v10.258a60.631,60.631,0,0,0,121.263,0V637.48a267.838,267.838,0,0,0,27.731-8,12.631,12.631,0,1,0-8.3-23.859,242.375,242.375,0,0,1-34.414,9.2,12.632,12.632,0,0,0-10.278,12.411v20.514a35.369,35.369,0,0,1-70.738,0V627.229A12.63,12.63,0,0,0,330.1,614.819a240.714,240.714,0,0,1-91.125-37.756,12.624,12.624,0,0,0-16.041,1.509l-14.513,14.513a35.369,35.369,0,0,1-50.017-50.022l14.513-14.513a12.63,12.63,0,0,0,1.509-16.039,240.716,240.716,0,0,1-37.756-91.125A12.633,12.633,0,0,0,124.26,411.11H103.747a35.369,35.369,0,0,1,0-70.738H124.26A12.634,12.634,0,0,0,136.671,330.1a240.754,240.754,0,0,1,37.756-91.125,12.63,12.63,0,0,0-1.509-16.039l-14.513-14.514a35.369,35.369,0,0,1,50.017-50.02l14.513,14.513a12.628,12.628,0,0,0,16.041,1.509A240.688,240.688,0,0,1,330.1,136.661a12.628,12.628,0,0,0,10.277-12.409v-20.5a35.369,35.369,0,0,1,70.738,0v20.514a12.63,12.63,0,0,0,10.278,12.409,240.68,240.68,0,0,1,91.122,37.756,12.625,12.625,0,0,0,16.041-1.509l14.513-14.513a35.367,35.367,0,0,1,50.017,50.017l-14.513,14.513a12.634,12.634,0,0,0-1.509,16.041A240.7,240.7,0,0,1,614.818,330.1a12.629,12.629,0,0,0,12.409,10.278h20.517a35.37,35.37,0,0,1,0,70.741Z" transform="translate(24.253 24.253)" fill="#007aea"/>
      <path id="Trazado_232" data-name="Trazado 232" d="M322.926,487.613l-1.337.361a12.632,12.632,0,1,0,6.558,24.4l1.416-.385a12.631,12.631,0,0,0-6.636-24.375Z" transform="translate(175.632 274.032)" fill="#007aea"/>
      <path id="Trazado_233" data-name="Trazado 233" d="M565.287,451.877a.051.051,0,0,1-.012-.013,46.383,46.383,0,0,0-55.344-7.706l-23.138-23.138c43.444-72.745,33.88-168.578-28.7-231.158-73.88-73.875-194.083-73.875-267.958,0a189.529,189.529,0,0,0,231.2,296.7l23.1,23.1a46.379,46.379,0,0,0,7.7,55.331L597.562,710.8a46.372,46.372,0,0,0,65.5,0L710.7,663.166a46.371,46.371,0,0,0,.012-65.491Zm-148.57,7.63a12.525,12.525,0,0,0-1.425.966,164.175,164.175,0,1,1,24.936-252.744c56.433,56.433,63.127,144.061,20.078,207.891-.052.075-.1.153-.155.23a164.4,164.4,0,0,1-19.922,24.108A166.091,166.091,0,0,1,416.717,459.507Zm25.677,12.386a192.82,192.82,0,0,0,15.7-14.073,190.673,190.673,0,0,0,14.064-15.708L490.842,460.8l-29.775,29.773ZM692.836,645.3,645.2,692.938a21.068,21.068,0,0,1-29.759.013L470,547.138a21.048,21.048,0,0,1,0-29.771l47.638-47.637a21.049,21.049,0,0,1,29.759-.01l145.439,145.81A21.072,21.072,0,0,1,692.836,645.3Z" transform="translate(75.734 75.632)" fill="#007aea"/>
      <path id="Trazado_234" data-name="Trazado 234" d="M210.574,210.335a130.528,130.528,0,1,0,184.594,0C344.272,159.443,261.466,159.443,210.574,210.335ZM377.3,377.063a105.263,105.263,0,1,1,0-148.862A104.928,104.928,0,0,1,377.3,377.063Z" transform="translate(96.978 96.843)" fill="#007aea"/>
      <path id="Trazado_235" data-name="Trazado 235" d="M363.28,472.5l-1.2.578a12.632,12.632,0,1,0,10.93,22.776l1.273-.612A12.633,12.633,0,0,0,363.28,472.5Z" transform="translate(199.638 265.07)" fill="#007aea"/>
    </g>
  </g>
</svg>
