<svg xmlns="http://www.w3.org/2000/svg" width="47.602" height="42.543" viewBox="0 0 47.602 42.543">
  <path id="coding" d="M28.967,48.322H33.5a.7.7,0,0,0,0-1.395h-4.53a.7.7,0,0,0,0,1.395Zm2.85-5.344a.7.7,0,0,0,.894-.417L35.537,34.8a.7.7,0,0,0-1.31-.477L31.4,42.084A.7.7,0,0,0,31.817,42.978ZM8.14,46.326l4.745,2.739a2.494,2.494,0,0,0,1.194.332l.055,0,.055,0a2.5,2.5,0,0,0,1.194-.332l4.745-2.739a1.17,1.17,0,0,0,.591-1.024V38.783h0a.71.71,0,0,0-.005-.082,1.167,1.167,0,0,0-.586-.941L15.383,35.02a2.5,2.5,0,0,0-2.5,0L8.14,37.76a1.167,1.167,0,0,0-.586.941.689.689,0,0,0-.005.082h0V45.3A1.17,1.17,0,0,0,8.14,46.326ZM19.324,45.18l-4.493,2.594V42.78a2.481,2.481,0,0,0,.552-.234l3.941-2.275V45.18Zm-5.742-8.952a1.107,1.107,0,0,1,1.1,0l4.426,2.555-4.426,2.555a1.106,1.106,0,0,1-1.1,0L9.156,38.783ZM8.944,40.271l3.941,2.275a2.478,2.478,0,0,0,.552.234v4.994L8.944,45.18Zm20.023,5.962h2.078a.7.7,0,0,0,0-1.395H28.967a.7.7,0,0,0,0,1.395ZM30.9,49.017H28.967a.7.7,0,1,0,0,1.395H30.9a.7.7,0,0,0,0-1.395ZM41.394,27.21h-1a.7.7,0,1,0,0,1.395h1a4.819,4.819,0,0,1,4.814,4.814V52.2H43.833V34.114A3.138,3.138,0,0,0,40.7,30.979H6.9A3.138,3.138,0,0,0,3.77,34.114V52.2H1.395V33.418A4.819,4.819,0,0,1,6.209,28.6h30.9a.7.7,0,1,0,0-1.395H6.209A6.216,6.216,0,0,0,0,33.418V54.442a6.2,6.2,0,0,0,5.123,6.114.7.7,0,0,0,.242-1.373,4.8,4.8,0,0,1-3.971-4.74V53.6H46.208v.845a4.819,4.819,0,0,1-4.814,4.814H8.518a.7.7,0,0,0,0,1.395h8.341l-.372,4.039h-.3a3,3,0,0,0-2.861,2.14l-.161.548a1.853,1.853,0,0,0,1.778,2.377H32.663a1.853,1.853,0,0,0,1.778-2.376l-.161-.548a3,3,0,0,0-2.86-2.14h-.3l-.372-4.039h10.65A6.216,6.216,0,0,0,47.6,54.442V33.418a6.215,6.215,0,0,0-6.208-6.208ZM23.1,52.2H5.164V34.114A1.741,1.741,0,0,1,6.9,32.374H23.1Zm19.334,0H24.5V32.374H40.7a1.741,1.741,0,0,1,1.739,1.739ZM18.259,60.65H29.343l.372,4.039H17.887Zm13.16,5.433a1.6,1.6,0,0,1,1.523,1.139l.161.548a.459.459,0,0,1-.44.588H14.939a.459.459,0,0,1-.44-.588l.161-.548a1.6,1.6,0,0,1,1.523-1.139Zm-6.28-9.657A1.338,1.338,0,1,0,23.8,57.764,1.338,1.338,0,0,0,25.139,56.426Zm11.5-20.995a.7.7,0,1,0-.986.986L37.68,38.44l-2.023,2.023a.7.7,0,0,0,.986.986l2.516-2.516a.7.7,0,0,0,0-.986Zm1.326,11.5H35.558a.7.7,0,1,0,0,1.395h2.411a.7.7,0,1,0,0-1.395Zm-7.183-5.274a.7.7,0,0,0,.493-1.19L29.257,38.44l2.023-2.023a.7.7,0,0,0-.986-.986l-2.516,2.516a.7.7,0,0,0,0,.986l2.516,2.516a.7.7,0,0,0,.493.2Zm6.39,7.363H32.961a.7.7,0,0,0,0,1.395h4.215a.7.7,0,1,0,0-1.395Zm-.805-3.481a.7.7,0,0,0-.7-.7H33.106a.7.7,0,0,0,0,1.395h2.568A.7.7,0,0,0,36.371,45.536Z" transform="translate(0 -27.21)" fill="#007aea"/>
</svg>
