<svg id="XMLID_83_" xmlns="http://www.w3.org/2000/svg" width="42.002" height="42.001" viewBox="0 0 42.002 42.001">
  <path id="XMLID_85_" d="M40.452,35.111h-.091V18.78l1.4-1.4a.82.82,0,0,0,0-1.16l-3.48-3.48a.82.82,0,0,0-1.16,0l-.694.694V.82A.82.82,0,0,0,35.6,0H24.692a.82.82,0,0,0,0,1.641h10.09V15.077L28.859,21H10.41a.82.82,0,1,0,0,1.641H27.218l-3.609,3.609H10.41a.82.82,0,1,0,0,1.641H21.968l-1.247,1.247h0a.817.817,0,0,0-.171.249l-2.516,5.722H7.219V1.641h10.09a.82.82,0,0,0,0-1.641H6.4a.82.82,0,0,0-.82.82V13.458a4.106,4.106,0,0,0-3.938,4.1V35.111H1.55A1.551,1.551,0,0,0,0,36.66,5.347,5.347,0,0,0,5.341,42H36.66A5.347,5.347,0,0,0,42,36.66a1.551,1.551,0,0,0-1.55-1.55ZM37.7,14.483l2.32,2.32L24.781,32.039l-2.32-2.32Zm1.023,5.938v14.69h-2.3V22.718Zm-3.938,3.938V35.111H22.473l2.639-1.161a.818.818,0,0,0,.25-.17ZM21.569,31.147l1.784,1.784-3.184,1.4ZM3.281,27.96v-10.4a2.464,2.464,0,0,1,2.3-2.455v20.01h-2.3Zm33.379,12.4H5.341a3.705,3.705,0,0,1-3.7-3.61H40.36A3.705,3.705,0,0,1,36.66,40.361Z" fill="#007aea"/>
  <path id="XMLID_393_" d="M117.715,192.007a.82.82,0,0,0,0,1.641h6.84a.82.82,0,1,0,0-1.641Z" transform="translate(-107.306 -176.256)" fill="#007aea"/>
  <path id="XMLID_394_" d="M130.846,128.819a.82.82,0,0,0-.82-.82h-12.31a.82.82,0,1,0,0,1.641h12.31A.82.82,0,0,0,130.846,128.819Z" transform="translate(-107.306 -117.499)" fill="#007aea"/>
  <path id="XMLID_395_" d="M328.877,128.819a.82.82,0,0,0-.82-.82h-4.278a.82.82,0,0,0,0,1.641h4.278A.82.82,0,0,0,328.877,128.819Z" transform="translate(-296.465 -117.499)" fill="#007aea"/>
  <path id="XMLID_396_" d="M117.715,65.644h3.128a.82.82,0,1,0,0-1.641h-3.128a.82.82,0,1,0,0,1.641Z" transform="translate(-107.306 -58.753)" fill="#007aea"/>
  <path id="XMLID_751_" d="M211.027,64.823a.82.82,0,0,0,.82.82h13.46a.82.82,0,0,0,0-1.641h-13.46A.82.82,0,0,0,211.027,64.823Z" transform="translate(-193.716 -58.753)" fill="#007aea"/>
  <path id="XMLID_752_" d="M246.82,1.641a.821.821,0,0,0,.82-.82.82.82,0,1,0-1.4.58A.827.827,0,0,0,246.82,1.641Z" transform="translate(-225.82 0)" fill="#007aea"/>
  <path id="XMLID_765_" d="M257.092,193.648H264.7a.82.82,0,0,0,0-1.641h-7.609a.82.82,0,1,0,0,1.641Z" transform="translate(-235.249 -176.256)" fill="#007aea"/>
</svg>
