<svg xmlns="http://www.w3.org/2000/svg" width="45.617" height="42.321" viewBox="0 0 45.617 42.321">
  <g id="desktop" transform="translate(0 -18.5)">
    <path id="Trazado_20" data-name="Trazado 20" d="M42.276,18.5H3.341A3.345,3.345,0,0,0,0,21.841v29.4a3.345,3.345,0,0,0,3.341,3.341H17.6L16.8,57.4a3.089,3.089,0,0,1-2.765,2.085H9a.668.668,0,0,0,0,1.336h27.62a.668.668,0,0,0,0-1.336H31.585A3.089,3.089,0,0,1,28.82,57.4l-.8-2.815h14.26a3.345,3.345,0,0,0,3.341-3.341v-29.4A3.345,3.345,0,0,0,42.276,18.5ZM3.341,19.836H42.276a2.007,2.007,0,0,1,2,2V45.229H1.336V21.841A2.007,2.007,0,0,1,3.341,19.836Zm24.194,37.93a4.077,4.077,0,0,0,1.026,1.718h-11.5a4.077,4.077,0,0,0,1.026-1.718l.909-3.182h7.634Zm14.741-4.519H3.341a2.007,2.007,0,0,1-2-2V46.565H44.281v4.678A2.007,2.007,0,0,1,42.276,53.248Z" fill="#007aea"/>
    <path id="Trazado_21" data-name="Trazado 21" d="M30.668,71.22H69.6a.668.668,0,0,0,.668-.668V49.168A.668.668,0,0,0,69.6,48.5H30.668a.668.668,0,0,0-.668.668v9.355a.668.668,0,1,0,1.336,0V49.836h37.6V69.883h-37.6V61.2A.668.668,0,0,0,30,61.2v9.355A.668.668,0,0,0,30.668,71.22Z" transform="translate(-27.327 -27.327)" fill="#007aea"/>
    <path id="Trazado_22" data-name="Trazado 22" d="M235.5,348.5a2,2,0,1,0,2,2A2.007,2.007,0,0,0,235.5,348.5Zm0,2.673a.668.668,0,1,1,.668-.668A.669.669,0,0,1,235.5,351.173Z" transform="translate(-212.696 -300.598)" fill="#007aea"/>
  </g>
</svg>
